<svg xmlns="http://www.w3.org/2000/svg" version="1.1" xmlns:xlink="http://www.w3.org/1999/xlink" xmlns:svgjs="http://svgjs.dev/svgjs" width="600" height="100" viewBox="0 0 600 100"><rect width="10" height="10" x="0" y="0" fill="#216e39"></rect><rect width="10" height="10" x="0" y="15" fill="#216e39"></rect><rect width="10" height="10" x="0" y="30" fill="#216e39"></rect><rect width="10" height="10" x="0" y="45" fill="#216e39"></rect><rect width="10" height="10" x="0" y="60" fill="#216e39"></rect><rect width="10" height="10" x="0" y="75" fill="#216e39"></rect><rect width="10" height="10" x="0" y="90" fill="#216e39"></rect><rect width="10" height="10" x="15" y="0" fill="#216e39"></rect><rect width="10" height="10" x="15" y="15" fill="#216e39"></rect><rect width="10" height="10" x="15" y="30" fill="#216e39"></rect><rect width="10" height="10" x="15" y="45" fill="#216e39"></rect><rect width="10" height="10" x="15" y="60" fill="#216e39"></rect><rect width="10" height="10" x="15" y="75" fill="#216e39"></rect><rect width="10" height="10" x="15" y="90" fill="#216e39"></rect><rect width="10" height="10" x="30" y="0" fill="#216e39"></rect><rect width="10" height="10" x="30" y="15" fill="#216e39"></rect><rect width="10" height="10" x="30" y="30" fill="#216e39"></rect><rect width="10" height="10" x="30" y="45" fill="#216e39"></rect><rect width="10" height="10" x="30" y="60" fill="#216e39"></rect><rect width="10" height="10" x="30" y="75" fill="#216e39"></rect><rect width="10" height="10" x="30" y="90" fill="#216e39"></rect><rect width="10" height="10" x="45" y="0" fill="#216e39"></rect><rect width="10" height="10" x="45" y="15" fill="#216e39"></rect><rect width="10" height="10" x="45" y="30" fill="#216e39"></rect><rect width="10" height="10" x="45" y="45" fill="#216e39"></rect><rect width="10" height="10" x="45" y="60" fill="#216e39"></rect><rect width="10" height="10" x="45" y="75" fill="#216e39"></rect><rect width="10" height="10" x="45" y="90" fill="#216e39"></rect><rect width="10" height="10" x="60" y="0" fill="#216e39"></rect><rect width="10" height="10" x="60" y="15" fill="#216e39"></rect><rect width="10" height="10" x="60" y="30" fill="#216e39"></rect><rect width="10" height="10" x="60" y="45" fill="#216e39"></rect><rect width="10" height="10" x="60" y="60" fill="#216e39"></rect><rect width="10" height="10" x="60" y="75" fill="#216e39"></rect><rect width="10" height="10" x="60" y="90" fill="#216e39"></rect><rect width="10" height="10" x="75" y="0" fill="#216e39"></rect><rect width="10" height="10" x="75" y="15" fill="#216e39"></rect><rect width="10" height="10" x="75" y="30" fill="#216e39"></rect><rect width="10" height="10" x="75" y="45" fill="#216e39"></rect><rect width="10" height="10" x="75" y="60" fill="#216e39"></rect><rect width="10" height="10" x="75" y="75" fill="#216e39"></rect><rect width="10" height="10" x="75" y="90" fill="#216e39"></rect><rect width="10" height="10" x="90" y="0" fill="#216e39"></rect><rect width="10" height="10" x="90" y="15" fill="#216e39"></rect><rect width="10" height="10" x="90" y="30" fill="#216e39"></rect><rect width="10" height="10" x="90" y="45" fill="#216e39"></rect><rect width="10" height="10" x="90" y="60" fill="#216e39"></rect><rect width="10" height="10" x="90" y="75" fill="#216e39"></rect><rect width="10" height="10" x="90" y="90" fill="#216e39"></rect><rect width="10" height="10" x="105" y="0" fill="#216e39"></rect><rect width="10" height="10" x="105" y="15" fill="#216e39"></rect><rect width="10" height="10" x="105" y="30" fill="#216e39"></rect><rect width="10" height="10" x="105" y="45" fill="#216e39"></rect><rect width="10" height="10" x="105" y="60" fill="#216e39"></rect><rect width="10" height="10" x="105" y="75" fill="#216e39"></rect><rect width="10" height="10" x="105" y="90" fill="#216e39"></rect><rect width="10" height="10" x="120" y="0" fill="#216e39"></rect><rect width="10" height="10" x="120" y="15" fill="#216e39"></rect><rect width="10" height="10" x="120" y="30" fill="#216e39"></rect><rect width="10" height="10" x="120" y="45" fill="#216e39"></rect><rect width="10" height="10" x="120" y="60" fill="#216e39"></rect><rect width="10" height="10" x="120" y="75" fill="#216e39"></rect><rect width="10" height="10" x="120" y="90" fill="#216e39"></rect><rect width="10" height="10" x="135" y="0" fill="#216e39"></rect><rect width="10" height="10" x="135" y="15" fill="#216e39"></rect><rect width="10" height="10" x="135" y="30" fill="#216e39"></rect><rect width="10" height="10" x="135" y="45" fill="#216e39"></rect><rect width="10" height="10" x="135" y="60" fill="#216e39"></rect><rect width="10" height="10" x="135" y="75" fill="#216e39"></rect><rect width="10" height="10" x="135" y="90" fill="#216e39"></rect><rect width="10" height="10" x="150" y="0" fill="#216e39"></rect><rect width="10" height="10" x="150" y="15" fill="#216e39"></rect><rect width="10" height="10" x="150" y="30" fill="#216e39"></rect><rect width="10" height="10" x="150" y="45" fill="#216e39"></rect><rect width="10" height="10" x="150" y="60" fill="#216e39"></rect><rect width="10" height="10" x="150" y="75" fill="#216e39"></rect><rect width="10" height="10" x="150" y="90" fill="#216e39"></rect><rect width="10" height="10" x="165" y="0" fill="#216e39"></rect><rect width="10" height="10" x="165" y="15" fill="#216e39"></rect><rect width="10" height="10" x="165" y="30" fill="#216e39"></rect><rect width="10" height="10" x="165" y="45" fill="#216e39"></rect><rect width="10" height="10" x="165" y="60" fill="#216e39"></rect><rect width="10" height="10" x="165" y="75" fill="#216e39"></rect><rect width="10" height="10" x="165" y="90" fill="#216e39"></rect><rect width="10" height="10" x="180" y="0" fill="#216e39"></rect><rect width="10" height="10" x="180" y="15" fill="#216e39"></rect><rect width="10" height="10" x="180" y="30" fill="#216e39"></rect><rect width="10" height="10" x="180" y="45" fill="#216e39"></rect><rect width="10" height="10" x="180" y="60" fill="#216e39"></rect><rect width="10" height="10" x="180" y="75" fill="#216e39"></rect><rect width="10" height="10" x="180" y="90" fill="#216e39"></rect><rect width="10" height="10" x="195" y="0" fill="#216e39"></rect><rect width="10" height="10" x="195" y="15" fill="#216e39"></rect><rect width="10" height="10" x="195" y="30" fill="#216e39"></rect><rect width="10" height="10" x="195" y="45" fill="#216e39"></rect><rect width="10" height="10" x="195" y="60" fill="#216e39"></rect><rect width="10" height="10" x="195" y="75" fill="#216e39"></rect><rect width="10" height="10" x="195" y="90" fill="#216e39"></rect><rect width="10" height="10" x="210" y="0" fill="#216e39"></rect><rect width="10" height="10" x="210" y="15" fill="#216e39"></rect><rect width="10" height="10" x="210" y="30" fill="#216e39"></rect><rect width="10" height="10" x="210" y="45" fill="#216e39"></rect><rect width="10" height="10" x="210" y="60" fill="#216e39"></rect><rect width="10" height="10" x="210" y="75" fill="#216e39"></rect><rect width="10" height="10" x="210" y="90" fill="#216e39"></rect><rect width="10" height="10" x="225" y="0" fill="#216e39"></rect><rect width="10" height="10" x="225" y="15" fill="#216e39"></rect><rect width="10" height="10" x="225" y="30" fill="#216e39"></rect><rect width="10" height="10" x="225" y="45" fill="#216e39"></rect><rect width="10" height="10" x="225" y="60" fill="#216e39"></rect><rect width="10" height="10" x="225" y="75" fill="#216e39"></rect><rect width="10" height="10" x="225" y="90" fill="#216e39"></rect><rect width="10" height="10" x="240" y="0" fill="#216e39"></rect><rect width="10" height="10" x="240" y="15" fill="#216e39"></rect><rect width="10" height="10" x="240" y="30" fill="#216e39"></rect><rect width="10" height="10" x="240" y="45" fill="#216e39"></rect><rect width="10" height="10" x="240" y="60" fill="#216e39"></rect><rect width="10" height="10" x="240" y="75" fill="#216e39"></rect><rect width="10" height="10" x="240" y="90" fill="#216e39"></rect><rect width="10" height="10" x="255" y="0" fill="#216e39"></rect><rect width="10" height="10" x="255" y="15" fill="#216e39"></rect><rect width="10" height="10" x="255" y="30" fill="#216e39"></rect><rect width="10" height="10" x="255" y="45" fill="#216e39"></rect><rect width="10" height="10" x="255" y="60" fill="#216e39"></rect><rect width="10" height="10" x="255" y="75" fill="#216e39"></rect><rect width="10" height="10" x="255" y="90" fill="#216e39"></rect><rect width="10" height="10" x="270" y="0" fill="#216e39"></rect><rect width="10" height="10" x="270" y="15" fill="#216e39"></rect><rect width="10" height="10" x="270" y="30" fill="#216e39"></rect><rect width="10" height="10" x="270" y="45" fill="#216e39"></rect><rect width="10" height="10" x="270" y="60" fill="#216e39"></rect><rect width="10" height="10" x="270" y="75" fill="#216e39"></rect><rect width="10" height="10" x="270" y="90" fill="#216e39"></rect><rect width="10" height="10" x="285" y="0" fill="#216e39"></rect><rect width="10" height="10" x="285" y="15" fill="#216e39"></rect><rect width="10" height="10" x="285" y="30" fill="#216e39"></rect><rect width="10" height="10" x="285" y="45" fill="#216e39"></rect><rect width="10" height="10" x="285" y="60" fill="#216e39"></rect><rect width="10" height="10" x="285" y="75" fill="#216e39"></rect><rect width="10" height="10" x="285" y="90" fill="#216e39"></rect><rect width="10" height="10" x="300" y="0" fill="#216e39"></rect><rect width="10" height="10" x="300" y="15" fill="#216e39"></rect><rect width="10" height="10" x="300" y="30" fill="#216e39"></rect><rect width="10" height="10" x="300" y="45" fill="#216e39"></rect><rect width="10" height="10" x="300" y="60" fill="#216e39"></rect><rect width="10" height="10" x="300" y="75" fill="#216e39"></rect><rect width="10" height="10" x="300" y="90" fill="#216e39"></rect><rect width="10" height="10" x="315" y="0" fill="#216e39"></rect><rect width="10" height="10" x="315" y="15" fill="#216e39"></rect><rect width="10" height="10" x="315" y="30" fill="#216e39"></rect><rect width="10" height="10" x="315" y="45" fill="#216e39"></rect><rect width="10" height="10" x="315" y="60" fill="#216e39"></rect><rect width="10" height="10" x="315" y="75" fill="#216e39"></rect><rect width="10" height="10" x="315" y="90" fill="#216e39"></rect><rect width="10" height="10" x="330" y="0" fill="#216e39"></rect><rect width="10" height="10" x="330" y="15" fill="#216e39"></rect><rect width="10" height="10" x="330" y="30" fill="#216e39"></rect><rect width="10" height="10" x="330" y="45" fill="#216e39"></rect><rect width="10" height="10" x="330" y="60" fill="#216e39"></rect><rect width="10" height="10" x="330" y="75" fill="#216e39"></rect><rect width="10" height="10" x="330" y="90" fill="#216e39"></rect><rect width="10" height="10" x="345" y="0" fill="#216e39"></rect><rect width="10" height="10" x="345" y="15" fill="#216e39"></rect><rect width="10" height="10" x="345" y="30" fill="#216e39"></rect><rect width="10" height="10" x="345" y="45" fill="#216e39"></rect><rect width="10" height="10" x="345" y="60" fill="#216e39"></rect><rect width="10" height="10" x="345" y="75" fill="#216e39"></rect><rect width="10" height="10" x="345" y="90" fill="#216e39"></rect><rect width="10" height="10" x="360" y="0" fill="#216e39"></rect><rect width="10" height="10" x="360" y="15" fill="#216e39"></rect><rect width="10" height="10" x="360" y="30" fill="#216e39"></rect><rect width="10" height="10" x="360" y="45" fill="#216e39"></rect><rect width="10" height="10" x="360" y="60" fill="#216e39"></rect><rect width="10" height="10" x="360" y="75" fill="#216e39"></rect><rect width="10" height="10" x="360" y="90" fill="#216e39"></rect><rect width="10" height="10" x="375" y="0" fill="#216e39"></rect><rect width="10" height="10" x="375" y="15" fill="#216e39"></rect><rect width="10" height="10" x="375" y="30" fill="#216e39"></rect><rect width="10" height="10" x="375" y="45" fill="#216e39"></rect><rect width="10" height="10" x="375" y="60" fill="#216e39"></rect><rect width="10" height="10" x="375" y="75" fill="#216e39"></rect><rect width="10" height="10" x="375" y="90" fill="#216e39"></rect><rect width="10" height="10" x="390" y="0" fill="#216e39"></rect><rect width="10" height="10" x="390" y="15" fill="#216e39"></rect><rect width="10" height="10" x="390" y="30" fill="#216e39"></rect><rect width="10" height="10" x="390" y="45" fill="#216e39"></rect><rect width="10" height="10" x="390" y="60" fill="#216e39"></rect><rect width="10" height="10" x="390" y="75" fill="#216e39"></rect><rect width="10" height="10" x="390" y="90" fill="#216e39"></rect><rect width="10" height="10" x="405" y="0" fill="#216e39"></rect><rect width="10" height="10" x="405" y="15" fill="#216e39"></rect><rect width="10" height="10" x="405" y="30" fill="#216e39"></rect><rect width="10" height="10" x="405" y="45" fill="#216e39"></rect><rect width="10" height="10" x="405" y="60" fill="#216e39"></rect><rect width="10" height="10" x="405" y="75" fill="#216e39"></rect><rect width="10" height="10" x="405" y="90" fill="#216e39"></rect><rect width="10" height="10" x="420" y="0" fill="#216e39"></rect><rect width="10" height="10" x="420" y="15" fill="#216e39"></rect><rect width="10" height="10" x="420" y="30" fill="#216e39"></rect><rect width="10" height="10" x="420" y="45" fill="#216e39"></rect><rect width="10" height="10" x="420" y="60" fill="#216e39"></rect><rect width="10" height="10" x="420" y="75" fill="#216e39"></rect><rect width="10" height="10" x="420" y="90" fill="#216e39"></rect><rect width="10" height="10" x="435" y="0" fill="#216e39"></rect><rect width="10" height="10" x="435" y="15" fill="#216e39"></rect><rect width="10" height="10" x="435" y="30" fill="#216e39"></rect><rect width="10" height="10" x="435" y="45" fill="#216e39"></rect><rect width="10" height="10" x="435" y="60" fill="#216e39"></rect><rect width="10" height="10" x="435" y="75" fill="#216e39"></rect><rect width="10" height="10" x="435" y="90" fill="#216e39"></rect><rect width="10" height="10" x="450" y="0" fill="#216e39"></rect><rect width="10" height="10" x="450" y="15" fill="#216e39"></rect><rect width="10" height="10" x="450" y="30" fill="#216e39"></rect><rect width="10" height="10" x="450" y="45" fill="#216e39"></rect><rect width="10" height="10" x="450" y="60" fill="#216e39"></rect><rect width="10" height="10" x="450" y="75" fill="#216e39"></rect><rect width="10" height="10" x="450" y="90" fill="#216e39"></rect><rect width="10" height="10" x="465" y="0" fill="#216e39"></rect><rect width="10" height="10" x="465" y="15" fill="#216e39"></rect><rect width="10" height="10" x="465" y="30" fill="#216e39"></rect><rect width="10" height="10" x="465" y="45" fill="#216e39"></rect><rect width="10" height="10" x="465" y="60" fill="#216e39"></rect><rect width="10" height="10" x="465" y="75" fill="#216e39"></rect><rect width="10" height="10" x="465" y="90" fill="#216e39"></rect><rect width="10" height="10" x="480" y="0" fill="#216e39"></rect><rect width="10" height="10" x="480" y="15" fill="#216e39"></rect><rect width="10" height="10" x="480" y="30" fill="#216e39"></rect><rect width="10" height="10" x="480" y="45" fill="#216e39"></rect><rect width="10" height="10" x="480" y="60" fill="#216e39"></rect><rect width="10" height="10" x="480" y="75" fill="#216e39"></rect><rect width="10" height="10" x="480" y="90" fill="#216e39"></rect><rect width="10" height="10" x="495" y="0" fill="#216e39"></rect><rect width="10" height="10" x="495" y="15" fill="#216e39"></rect><rect width="10" height="10" x="495" y="30" fill="#216e39"></rect><rect width="10" height="10" x="495" y="45" fill="#216e39"></rect><rect width="10" height="10" x="495" y="60" fill="#216e39"></rect><rect width="10" height="10" x="495" y="75" fill="#216e39"></rect><rect width="10" height="10" x="495" y="90" fill="#216e39"></rect><rect width="10" height="10" x="510" y="0" fill="#216e39"></rect><rect width="10" height="10" x="510" y="15" fill="#216e39"></rect><rect width="10" height="10" x="510" y="30" fill="#216e39"></rect><rect width="10" height="10" x="510" y="45" fill="#216e39"></rect><rect width="10" height="10" x="510" y="60" fill="#216e39"></rect><rect width="10" height="10" x="510" y="75" fill="#216e39"></rect><rect width="10" height="10" x="510" y="90" fill="#216e39"></rect><rect width="10" height="10" x="525" y="0" fill="#216e39"></rect><rect width="10" height="10" x="525" y="15" fill="#216e39"></rect><rect width="10" height="10" x="525" y="30" fill="#216e39"></rect><rect width="10" height="10" x="525" y="45" fill="#216e39"></rect><rect width="10" height="10" x="525" y="60" fill="#216e39"></rect><rect width="10" height="10" x="525" y="75" fill="#216e39"></rect><rect width="10" height="10" x="525" y="90" fill="#216e39"></rect><rect width="10" height="10" x="540" y="0" fill="#216e39"></rect><rect width="10" height="10" x="540" y="15" fill="#216e39"></rect><rect width="10" height="10" x="540" y="30" fill="#216e39"></rect><rect width="10" height="10" x="540" y="45" fill="#216e39"></rect><rect width="10" height="10" x="540" y="60" fill="#216e39"></rect><rect width="10" height="10" x="540" y="75" fill="#216e39"></rect><rect width="10" height="10" x="540" y="90" fill="#216e39"></rect><rect width="10" height="10" x="555" y="0" fill="#216e39"></rect><rect width="10" height="10" x="555" y="15" fill="#216e39"></rect><rect width="10" height="10" x="555" y="30" fill="#216e39"></rect><rect width="10" height="10" x="555" y="45" fill="#216e39"></rect><rect width="10" height="10" x="555" y="60" fill="#216e39"></rect><rect width="10" height="10" x="555" y="75" fill="#216e39"></rect><rect width="10" height="10" x="555" y="90" fill="#216e39"></rect><rect width="10" height="10" x="570" y="0" fill="#216e39"></rect><rect width="10" height="10" x="570" y="15" fill="#216e39"></rect><rect width="10" height="10" x="570" y="30" fill="#216e39"></rect><rect width="10" height="10" x="570" y="45" fill="#216e39"></rect><rect width="10" height="10" x="570" y="60" fill="#216e39"></rect><rect width="10" height="10" x="570" y="75" fill="#216e39"></rect><rect width="10" height="10" x="570" y="90" fill="#216e39"></rect><rect width="10" height="10" x="585" y="0" fill="#216e39"></rect><rect width="10" height="10" x="585" y="15" fill="#216e39"></rect><rect width="10" height="10" x="585" y="30" fill="#216e39"></rect><rect width="10" height="10" x="585" y="45" fill="#216e39"></rect><rect width="10" height="10" x="585" y="60" fill="#216e39"></rect><rect width="10" height="10" x="585" y="75" fill="#216e39"></rect><rect width="10" height="10" x="585" y="90" fill="#216e39"></rect><rect width="10" height="10" x="600" y="0" fill="#216e39"></rect><rect width="10" height="10" x="600" y="15" fill="#216e39"></rect><rect width="10" height="10" x="600" y="30" fill="#216e39"></rect><rect width="10" height="10" x="600" y="45" fill="#216e39"></rect><rect width="10" height="10" x="600" y="60" fill="#216e39"></rect><rect width="10" height="10" x="600" y="75" fill="#216e39"></rect><rect width="10" height="10" x="600" y="90" fill="#216e39"></rect><rect width="10" height="10" x="615" y="0" fill="#216e39"></rect><rect width="10" height="10" x="615" y="15" fill="#216e39"></rect><rect width="10" height="10" x="615" y="30" fill="#216e39"></rect><rect width="10" height="10" x="615" y="45" fill="#216e39"></rect><rect width="10" height="10" x="615" y="60" fill="#216e39"></rect><rect width="10" height="10" x="615" y="75" fill="#216e39"></rect><rect width="10" height="10" x="615" y="90" fill="#216e39"></rect><rect width="10" height="10" x="630" y="0" fill="#216e39"></rect><rect width="10" height="10" x="630" y="15" fill="#216e39"></rect><rect width="10" height="10" x="630" y="30" fill="#216e39"></rect><rect width="10" height="10" x="630" y="45" fill="#216e39"></rect><rect width="10" height="10" x="630" y="60" fill="#216e39"></rect><rect width="10" height="10" x="630" y="75" fill="#216e39"></rect><rect width="10" height="10" x="630" y="90" fill="#216e39"></rect><rect width="10" height="10" x="645" y="0" fill="#216e39"></rect><rect width="10" height="10" x="645" y="15" fill="#216e39"></rect><rect width="10" height="10" x="645" y="30" fill="#216e39"></rect><rect width="10" height="10" x="645" y="45" fill="#216e39"></rect><rect width="10" height="10" x="645" y="60" fill="#216e39"></rect><rect width="10" height="10" x="645" y="75" fill="#216e39"></rect><rect width="10" height="10" x="645" y="90" fill="#216e39"></rect><rect width="10" height="10" x="660" y="0" fill="#216e39"></rect><rect width="10" height="10" x="660" y="15" fill="#216e39"></rect><rect width="10" height="10" x="660" y="30" fill="#216e39"></rect><rect width="10" height="10" x="660" y="45" fill="#216e39"></rect><rect width="10" height="10" x="660" y="60" fill="#216e39"></rect><rect width="10" height="10" x="660" y="75" fill="#216e39"></rect><rect width="10" height="10" x="660" y="90" fill="#216e39"></rect><rect width="10" height="10" x="675" y="0" fill="#216e39"></rect><rect width="10" height="10" x="675" y="15" fill="#216e39"></rect><rect width="10" height="10" x="675" y="30" fill="#216e39"></rect><rect width="10" height="10" x="675" y="45" fill="#216e39"></rect><rect width="10" height="10" x="675" y="60" fill="#216e39"></rect><rect width="10" height="10" x="675" y="75" fill="#216e39"></rect><rect width="10" height="10" x="675" y="90" fill="#216e39"></rect><rect width="10" height="10" x="690" y="0" fill="#216e39"></rect><rect width="10" height="10" x="690" y="15" fill="#216e39"></rect><rect width="10" height="10" x="690" y="30" fill="#216e39"></rect><rect width="10" height="10" x="690" y="45" fill="#216e39"></rect><rect width="10" height="10" x="690" y="60" fill="#216e39"></rect><rect width="10" height="10" x="690" y="75" fill="#216e39"></rect><rect width="10" height="10" x="690" y="90" fill="#216e39"></rect><rect width="10" height="10" x="705" y="0" fill="#216e39"></rect><rect width="10" height="10" x="705" y="15" fill="#216e39"></rect><rect width="10" height="10" x="705" y="30" fill="#216e39"></rect><rect width="10" height="10" x="705" y="45" fill="#216e39"></rect><rect width="10" height="10" x="705" y="60" fill="#216e39"></rect><rect width="10" height="10" x="705" y="75" fill="#216e39"></rect><rect width="10" height="10" x="705" y="90" fill="#216e39"></rect><rect width="10" height="10" x="720" y="0" fill="#216e39"></rect><rect width="10" height="10" x="720" y="15" fill="#216e39"></rect><rect width="10" height="10" x="720" y="30" fill="#216e39"></rect><rect width="10" height="10" x="720" y="45" fill="#216e39"></rect><rect width="10" height="10" x="720" y="60" fill="#216e39"></rect><rect width="10" height="10" x="720" y="75" fill="#216e39"></rect><rect width="10" height="10" x="720" y="90" fill="#216e39"></rect><rect width="10" height="10" x="735" y="0" fill="#216e39"></rect><rect width="10" height="10" x="735" y="15" fill="#216e39"></rect><rect width="10" height="10" x="735" y="30" fill="#216e39"></rect><rect width="10" height="10" x="735" y="45" fill="#216e39"></rect><rect width="10" height="10" x="735" y="60" fill="#216e39"></rect><rect width="10" height="10" x="735" y="75" fill="#216e39"></rect><rect width="10" height="10" x="735" y="90" fill="#216e39"></rect><rect width="10" height="10" x="750" y="0" fill="#216e39"></rect><rect width="10" height="10" x="750" y="15" fill="#216e39"></rect><rect width="10" height="10" x="750" y="30" fill="#216e39"></rect><rect width="10" height="10" x="750" y="45" fill="#216e39"></rect><rect width="10" height="10" x="750" y="60" fill="#216e39"></rect><rect width="10" height="10" x="750" y="75" fill="#216e39"></rect><rect width="10" height="10" x="750" y="90" fill="#216e39"></rect><rect width="10" height="10" x="765" y="0" fill="#216e39"></rect><rect width="10" height="10" x="765" y="15" fill="#216e39"></rect><rect width="10" height="10" x="765" y="30" fill="#216e39"></rect><rect width="10" height="10" x="765" y="45" fill="#216e39"></rect><rect width="10" height="10" x="765" y="60" fill="#216e39"></rect><rect width="10" height="10" x="765" y="75" fill="#216e39"></rect><rect width="10" height="10" x="765" y="90" fill="#216e39"></rect><rect width="10" height="10" x="780" y="0" fill="#216e39"></rect><rect width="10" height="10" x="780" y="15" fill="#216e39"></rect><rect width="10" height="10" x="780" y="30" fill="#216e39"></rect><rect width="10" height="10" x="780" y="45" fill="#216e39"></rect><rect width="10" height="10" x="780" y="60" fill="#216e39"></rect><rect width="10" height="10" x="780" y="75" fill="#216e39"></rect><rect width="10" height="10" x="780" y="90" fill="#216e39"></rect><rect width="10" height="10" x="795" y="0" fill="#216e39"></rect><rect width="10" height="10" x="795" y="15" fill="#216e39"></rect><rect width="10" height="10" x="795" y="30" fill="#216e39"></rect><rect width="10" height="10" x="795" y="45" fill="#216e39"></rect><rect width="10" height="10" x="795" y="60" fill="#216e39"></rect><rect width="10" height="10" x="795" y="75" fill="#216e39"></rect><rect width="10" height="10" x="795" y="90" fill="#216e39"></rect><rect width="10" height="10" x="810" y="0" fill="#216e39"></rect><rect width="10" height="10" x="810" y="15" fill="#216e39"></rect><rect width="10" height="10" x="810" y="30" fill="#216e39"></rect><rect width="10" height="10" x="810" y="45" fill="#216e39"></rect><rect width="10" height="10" x="810" y="60" fill="#216e39"></rect><rect width="10" height="10" x="810" y="75" fill="#216e39"></rect><rect width="10" height="10" x="810" y="90" fill="#216e39"></rect></svg>