<svg xmlns="http://www.w3.org/2000/svg" version="1.1" xmlns:xlink="http://www.w3.org/1999/xlink" xmlns:svgjs="http://svgjs.dev/svgjs" width="800" height="600" viewBox="-10 -10 20 20"><line x1="-10" y1="0" x2="10" y2="0" stroke-width="0.1"></line><line x1="0" y1="-10" x2="0" y2="10" stroke-width="0.1"></line><circle r="0.1" cx="2.1" cy="0.1" fill="blue" opacity="0"></circle><line x1="-3" y1="20" x2="7" y2="-20" stroke-width="0.1" stroke="red" opacity="0"></line><line x1="2" y1="0.5" x2="2" y2="-0.5" stroke-width="0.1" stroke="green" opacity="0"></line><circle r="0.1" cx="2.1" cy="0.1" fill="blue" opacity="0"></circle><line x1="-3" y1="20" x2="7" y2="-20" stroke-width="0.1" stroke="red" opacity="0"></line><line x1="2" y1="0.5" x2="2" y2="-0.5" stroke-width="0.1" stroke="green" opacity="0"></line><circle r="0.1" cx="2.1" cy="0.1" fill="blue" opacity="0"></circle><line x1="-3" y1="20" x2="7" y2="-20" stroke-width="0.1" stroke="red" opacity="0"></line><line x1="2" y1="0.5" x2="2" y2="-0.5" stroke-width="0.1" stroke="green" opacity="0"></line><circle r="0.1" cx="2.1" cy="0.1" fill="blue" opacity="0"></circle><line x1="-3" y1="20" x2="7" y2="-20" stroke-width="0.1" stroke="red" opacity="0"></line><line x1="2" y1="0.5" x2="2" y2="-0.5" stroke-width="0.1" stroke="green" opacity="0"></line><circle r="0.1" cx="2.1" cy="0.1" fill="blue" opacity="0"></circle><line x1="-3" y1="20" x2="7" y2="-20" stroke-width="0.1" stroke="red" opacity="0"></line></svg>